<svg width="353" height="415" id ="svgOne" viewBox="0 0 353 415" fill="none" xmlns="http://www.w3.org/2000/svg">

<path d="M311.3 47.004C340.78 79.7 350.428 127.94 352.036 172.16C353.912 216.648 347.48 257.116 333.008 302.944C318.536 348.772 295.488 399.424 259.308 411.484C223.128 423.544 173.816 397.012 129.06 373.696C84.572 350.648 44.372 330.548 22.128 297.852C0.151989 264.888 -4.136 219.06 5.244 176.984C14.356 134.908 36.868 96.852 69.028 64.424C100.92 32.264 142.46 5.73199 187.752 1.17599C233.044 -3.11201 282.088 14.308 311.3 47.004Z" fill="url(#paint0_linear)"/>
<!-- Balloons-->
<path class"balloon" d="M325.188 220.449C331.747 210.109 329.247 196.692 322.273 192.201C315.3 187.709 302.165 191.056 295.607 201.395C289.536 210.965 291.541 223.367 297.081 228.515C296.974 228.532 296.872 228.569 296.78 228.625L295.157 229.65C295.033 229.728 294.932 229.836 294.861 229.965C294.791 230.094 294.755 230.239 294.756 230.386C294.757 230.533 294.795 230.678 294.867 230.806C294.938 230.934 295.042 231.041 295.166 231.118L298.65 233.257C298.774 233.333 298.916 233.376 299.062 233.382C299.208 233.388 299.353 233.356 299.483 233.289C299.613 233.223 299.724 233.124 299.806 233.001C299.887 232.879 299.937 232.738 299.949 232.592L300.109 230.669C300.113 230.602 300.109 230.535 300.098 230.469C307.062 233.413 319.104 230.04 325.188 220.449Z" fill="#FF9D9D"/>
<path class"balloon" d="M321.854 200.052C322.92 203.495 322.644 207.219 321.084 210.465C319.524 213.712 316.796 216.239 313.455 217.532C312.692 217.829 313.023 219.081 313.796 218.78C317.46 217.386 320.46 214.638 322.187 211.096C323.913 207.554 324.237 203.482 323.093 199.708C322.854 198.913 321.614 199.251 321.854 200.052V200.052Z" fill="white"/>
<!-- Balloons-->
<path d="M87.6898 182.845C94.461 173.714 106.854 171.51 113.012 176.147C119.171 180.784 120.585 193.385 113.814 202.515C107.546 210.967 96.191 213.272 89.9366 210.106C89.9568 210.205 89.958 210.306 89.9403 210.406L89.5877 212.162C89.5608 212.296 89.5004 212.421 89.4122 212.525C89.324 212.629 89.2109 212.708 89.0838 212.755C88.9566 212.803 88.8195 212.817 88.6855 212.795C88.5516 212.774 88.4252 212.719 88.3183 212.635L85.3323 210.284C85.2255 210.2 85.1417 210.09 85.089 209.964C85.0364 209.838 85.0165 209.701 85.0313 209.565C85.0462 209.429 85.0952 209.3 85.1738 209.188C85.2523 209.077 85.3579 208.988 85.4803 208.929L87.0865 208.159C87.143 208.134 87.2024 208.115 87.2633 208.103C82.4423 202.968 81.4086 191.315 87.6898 182.845Z" fill="#E6E6E6"/>
<path d="M102.501 179.397C99.1888 179.927 96.2049 181.719 94.1654 184.401C92.1259 187.084 91.1864 190.454 91.5409 193.814C91.6137 194.584 90.42 194.579 90.3478 193.814C90.0063 190.192 91.0365 186.574 93.2316 183.685C95.4268 180.796 98.6246 178.85 102.184 178.238C102.935 178.109 103.258 179.268 102.501 179.397V179.397Z" fill="white"/>
<path d="M258.111 311.763C263.433 303.374 261.404 292.487 255.746 288.843C250.088 285.198 239.43 287.914 234.109 296.303C229.183 304.069 230.81 314.132 235.305 318.308C235.218 318.322 235.135 318.353 235.06 318.398L233.744 319.229C233.643 319.293 233.561 319.381 233.504 319.485C233.447 319.59 233.417 319.708 233.418 319.827C233.419 319.946 233.45 320.063 233.508 320.167C233.566 320.271 233.65 320.358 233.751 320.42L236.578 322.156C236.679 322.218 236.794 322.253 236.912 322.258C237.031 322.262 237.148 322.236 237.254 322.182C237.36 322.128 237.45 322.048 237.516 321.949C237.582 321.85 237.622 321.736 237.632 321.617L237.762 320.057C237.765 320.002 237.762 319.947 237.752 319.894C243.403 322.283 253.175 319.546 258.111 311.763Z" fill="#F2F2F2"/>
<path d="M338.543 122.288H28.4571C27.2754 122.289 26.1425 122.763 25.3069 123.605C24.4713 124.447 24.0013 125.589 24 126.779V338.509C24.0013 339.7 24.4713 340.841 25.3069 341.683C26.1425 342.525 27.2754 342.999 28.4571 343H338.543C339.725 342.999 340.857 342.525 341.693 341.683C342.529 340.841 342.999 339.7 343 338.509V126.779C342.999 125.589 342.529 124.447 341.693 123.605C340.857 122.763 339.725 122.289 338.543 122.288V122.288ZM341.727 338.509C341.726 339.359 341.391 340.175 340.794 340.777C340.197 341.378 339.387 341.716 338.543 341.717H28.4571C27.6128 341.716 26.8033 341.378 26.2063 340.777C25.6093 340.175 25.2738 339.359 25.2734 338.509V126.779C25.2738 125.929 25.6093 125.113 26.2063 124.511C26.8033 123.91 27.6128 123.572 28.4571 123.571H338.543C339.387 123.572 340.197 123.91 340.794 124.511C341.391 125.113 341.726 125.929 341.727 126.779V338.509Z" fill="#3F3D56"/>
<path d="M342.363 140.279H24.6367V141.562H342.363V140.279Z" fill="#3F3D56"/>

<path d="M35.4611 135.762C37.571 135.762 39.2814 134.038 39.2814 131.912C39.2814 129.786 37.571 128.063 35.4611 128.063C33.3511 128.063 31.6407 129.786 31.6407 131.912C31.6407 134.038 33.3511 135.762 35.4611 135.762Z" fill="#3F3D56"/>
<path d="M46.4446 135.762C48.5545 135.762 50.265 134.038 50.265 131.912C50.265 129.786 48.5545 128.063 46.4446 128.063C44.3347 128.063 42.6242 129.786 42.6242 131.912C42.6242 134.038 44.3347 135.762 46.4446 135.762Z" fill="#3F3D56"/>
<path d="M57.4281 135.762C59.5381 135.762 61.2485 134.038 61.2485 131.912C61.2485 129.786 59.5381 128.063 57.4281 128.063C55.3182 128.063 53.6078 129.786 53.6078 131.912C53.6078 134.038 55.3182 135.762 57.4281 135.762Z" fill="#3F3D56"/>
<path d="M255.406 295.213C256.27 298.008 256.047 301.029 254.781 303.663C253.515 306.297 251.302 308.348 248.591 309.397C247.971 309.638 248.24 310.654 248.868 310.41C251.841 309.278 254.275 307.049 255.676 304.175C257.077 301.3 257.34 297.997 256.411 294.934C256.217 294.289 255.211 294.564 255.406 295.213Z" fill="white"/>
<!-- Balloons-->
<path class"balloon" d="M291.792 118.199C298.351 107.859 295.85 94.4423 288.877 89.9508C281.904 85.4592 268.769 88.8057 262.211 99.1451C256.14 108.715 258.145 121.118 263.685 126.265C263.578 126.282 263.476 126.319 263.383 126.375L261.761 127.4C261.637 127.478 261.536 127.586 261.465 127.715C261.395 127.844 261.359 127.989 261.36 128.136C261.36 128.283 261.399 128.428 261.471 128.556C261.542 128.684 261.646 128.791 261.77 128.868L265.254 131.007C265.378 131.083 265.52 131.126 265.666 131.132C265.812 131.138 265.957 131.106 266.087 131.039C266.217 130.973 266.328 130.874 266.41 130.752C266.491 130.63 266.54 130.489 266.553 130.342L266.713 128.419C266.717 128.352 266.713 128.285 266.701 128.219C273.666 131.163 285.708 127.79 291.792 118.199Z" fill="#E6E6E6"/>
<path class"balloon" d="M288.458 97.8017C289.524 101.246 289.248 104.969 287.688 108.215C286.128 111.462 283.4 113.989 280.059 115.282C279.296 115.579 279.627 116.831 280.4 116.531C284.064 115.136 287.064 112.389 288.791 108.846C290.517 105.304 290.841 101.232 289.697 97.4577C289.458 96.6627 288.218 97.0015 288.458 97.8017V97.8017Z" fill="white"/>
<!-- Balloons-->
<path d="M111.223 113.247C103.933 103.417 90.5914 101.045 83.9617 106.037C77.3319 111.029 75.809 124.594 83.0986 134.424C89.8459 143.523 102.071 146.004 108.804 142.595C108.782 142.702 108.781 142.811 108.8 142.918L109.179 144.809C109.208 144.954 109.273 145.088 109.368 145.2C109.463 145.311 109.585 145.397 109.722 145.448C109.859 145.499 110.006 145.514 110.151 145.491C110.295 145.468 110.431 145.409 110.546 145.318L113.76 142.788C113.876 142.697 113.966 142.579 114.022 142.443C114.079 142.307 114.1 142.16 114.085 142.013C114.069 141.867 114.016 141.727 113.931 141.608C113.847 141.488 113.733 141.392 113.601 141.328L111.872 140.5C111.811 140.472 111.747 140.452 111.682 140.44C116.872 134.911 117.985 122.366 111.223 113.247Z" fill="#FF9D9D"/>
<path d="M95.2776 109.536C98.8434 110.107 102.056 112.035 104.251 114.923C106.447 117.812 107.458 121.439 107.077 125.057C106.998 125.885 108.283 125.88 108.361 125.057C108.729 121.157 107.62 117.262 105.257 114.152C102.893 111.042 99.4507 108.947 95.619 108.288C94.8105 108.149 94.4631 109.396 95.2776 109.536Z" fill="white"/>
<path d="M81.9583 248.503C85.1454 248.706 88.2395 249.666 90.9871 251.306C93.7347 252.946 96.0574 255.219 97.765 257.938C98.2435 258.709 98.8682 259.556 98.5369 260.505C98.4215 260.869 98.1871 261.182 97.8719 261.394C97.5566 261.606 97.1794 261.705 96.8016 261.673C95.8249 261.553 95.1946 260.59 95.0743 259.668C94.9378 258.621 95.6705 257.8 96.575 257.411C98.7855 256.461 101.016 257.929 102.816 259.101C106.919 261.771 111.431 264.186 116.403 264.49C121.002 264.772 125.935 262.954 128.493 258.935C128.941 258.232 127.829 257.582 127.384 258.282C124.847 262.268 119.717 263.7 115.258 263.083C112.6 262.661 110.034 261.783 107.67 260.488C106.444 259.847 105.255 259.136 104.09 258.389C102.982 257.61 101.807 256.931 100.579 256.361C98.532 255.513 95.8219 255.58 94.3919 257.531C93.0578 259.351 94.0888 262.381 96.3202 262.893C98.4348 263.378 100.287 261.374 99.8522 259.278C99.6295 258.207 98.8286 257.158 98.2086 256.281C96.3457 253.641 93.9187 251.455 91.1063 249.885C88.294 248.315 85.1678 247.4 81.9583 247.209C81.132 247.168 81.1342 248.462 81.9583 248.503H81.9583Z" fill="#FF9D9D"/>
<path d="M274.37 247.397C271.427 248.978 268.141 249.8 264.806 249.789C261.471 249.778 258.191 248.933 255.259 247.331C254.595 246.962 254.037 246.542 253.962 245.724C253.923 245.387 253.986 245.047 254.142 244.747C254.299 244.446 254.542 244.201 254.84 244.043C255.762 243.589 256.859 244.118 257.435 244.893C258.055 245.726 257.807 246.807 257.234 247.592C255.75 249.621 252.946 249.428 250.727 249.383C245.948 249.286 240.923 249.671 236.641 252.01C232.618 254.208 229.388 258.332 229.298 263.076C229.283 263.91 230.567 263.91 230.583 263.076C230.671 258.395 234.182 254.536 238.226 252.657C240.735 251.561 243.418 250.924 246.149 250.778C247.483 250.678 248.82 250.651 250.157 250.668C251.49 250.739 252.826 250.71 254.155 250.582C256.447 250.266 258.912 248.777 259.081 246.208C259.234 243.884 256.613 241.911 254.453 242.808C254.057 242.986 253.704 243.249 253.419 243.578C253.133 243.907 252.921 244.294 252.798 244.713C252.675 245.132 252.643 245.573 252.704 246.005C252.765 246.438 252.919 246.852 253.154 247.219C253.731 248.107 254.759 248.56 255.679 249C258.715 250.45 262.047 251.162 265.406 251.078C268.765 250.993 272.057 250.115 275.018 248.514C275.743 248.113 275.096 246.995 274.37 247.396V247.397Z" fill="#FF6584"/>
<path d="M216.344 163.471C222.123 165.474 226.169 171.376 226.512 177.453C226.687 180.537 225.961 184.103 223.677 186.322C223.172 186.861 222.542 187.265 221.843 187.497C221.144 187.728 220.399 187.78 219.675 187.648C218.414 187.372 217.099 186.506 216.883 185.13C216.675 183.801 217.576 182.702 218.669 182.096C219.29 181.757 219.972 181.548 220.675 181.481C221.377 181.413 222.086 181.49 222.759 181.705C224.542 182.264 226.052 183.462 227.491 184.618C228.896 185.792 230.389 186.853 231.959 187.792C238.149 191.384 245.487 192.398 252.408 190.616C259.329 188.834 265.285 184.398 269.006 178.254C269.458 177.516 269.872 176.758 270.249 175.978C270.612 175.233 269.504 174.576 269.14 175.325C267.507 178.723 265.168 181.728 262.281 184.135C259.394 186.542 256.027 188.296 252.409 189.277C248.79 190.258 245.005 190.443 241.309 189.82C237.613 189.197 234.093 187.781 230.989 185.667C227.999 183.648 225.132 180.179 221.244 180.155C218.38 180.136 214.936 182.317 215.67 185.6C216.004 187.094 217.256 188.169 218.629 188.687C219.367 188.962 220.156 189.071 220.941 189.006C221.725 188.942 222.486 188.704 223.17 188.311C226.202 186.595 227.526 182.786 227.778 179.477C228.272 172.973 224.624 166.228 218.891 163.179C218.182 162.804 217.444 162.484 216.686 162.223C215.902 161.952 215.566 163.201 216.344 163.471V163.471Z" fill="#E6E6E6"/>
<path d="M194.233 324.817L191.01 325L183.671 274.4L176.78 324.908L173.289 324.083C171.351 302.311 168.827 279.806 170.604 270H195.128C198.769 279.748 196.338 302.634 194.233 324.817Z" fill="#2F2E41"/>
<path d="M173.494 332.996C173.108 332.976 172.73 332.868 172.388 332.679C172.047 332.491 171.75 332.227 171.519 331.907C171.288 331.586 171.128 331.217 171.052 330.826C170.975 330.435 170.984 330.031 171.076 329.643L172.412 324.049C173.53 322.619 174.529 322.682 175.427 324.049L176.345 323.644L177 328.506L176.096 331.227C175.902 331.77 175.545 332.234 175.077 332.552C174.609 332.87 174.055 333.026 173.494 332.996Z" fill="#2F2E41"/>
<path d="M194.09 332.996C194.541 332.976 194.982 332.868 195.38 332.679C195.779 332.491 196.125 332.227 196.395 331.907C196.664 331.586 196.85 331.217 196.94 330.826C197.029 330.435 197.019 330.031 196.911 329.643L195.352 324.049C194.049 322.619 192.882 322.682 191.835 324.049L190.765 323.644L190 328.506L191.054 331.227C191.281 331.77 191.697 332.234 192.243 332.552C192.789 332.87 193.436 333.026 194.09 332.996V332.996Z" fill="#2F2E41"/>
<path d="M184 219C187.866 219 191 215.642 191 211.5C191 207.358 187.866 204 184 204C180.134 204 177 207.358 177 211.5C177 215.642 180.134 219 184 219Z" fill="#CF9191"/>
<path d="M189 225H179L179.588 216H189V225Z" fill="#CF9191"/>
<path d="M198.102 271H169C173.243 256.676 172.497 241.331 169.359 225.496L177.263 222.978L179.419 221.18C182.124 224.478 185.115 224.451 188.401 221L191.096 222.978L199 225.676C194.831 240.932 194.153 256.054 198.102 271Z" fill="#FF9D9D"/>
<path d="M176.378 210.056C176.065 209.125 175.945 208.136 176.023 207.153C176.102 206.17 176.378 205.215 176.834 204.351C177.743 202.67 179.493 201.094 182.857 201.005C190.197 200.811 193.378 206.585 192.964 208.278C192.551 209.971 191.071 214 191.071 214C191.071 214 191.989 210.121 190.154 209.733C188.319 209.345 181.208 207.793 179.143 209.539C178.555 210.009 178.096 210.634 177.814 211.35C177.532 212.065 177.437 212.846 177.538 213.612L176.378 210.056Z" fill="#2F2E41"/>
<path d="M188.09 204.863C188.061 204.859 188.032 204.854 188.003 204.847L180.436 203.059C180.313 203.03 180.201 202.97 180.109 202.885C180.017 202.8 179.949 202.692 179.912 202.572C179.875 202.453 179.869 202.326 179.896 202.203C179.922 202.081 179.98 201.968 180.064 201.874L185.415 195.926C185.502 195.83 185.612 195.759 185.736 195.72C185.859 195.681 185.99 195.675 186.116 195.704C186.242 195.733 186.358 195.795 186.452 195.884C186.546 195.973 186.614 196.085 186.65 196.209L188.866 203.946C188.898 204.06 188.902 204.18 188.877 204.296C188.852 204.412 188.799 204.52 188.723 204.61C188.646 204.701 188.548 204.771 188.438 204.815C188.328 204.859 188.208 204.876 188.09 204.863L188.09 204.863Z" fill="#FF9D9D"/>
<path d="M183.851 197.709L186.928 198.077L186.677 197.182L184.536 196.926L183.851 197.709Z" fill="#E6E6E6"/>
<path d="M183.292 198.428L187.116 198.848L187.361 199.695L182.61 199.173L183.292 198.428Z" fill="#E6E6E6"/>
<path d="M182.192 191.856L183.391 194.805C183.428 194.904 183.5 194.983 183.589 195.027C183.679 195.071 183.781 195.076 183.873 195.041C183.964 195.003 184.038 194.927 184.077 194.83C184.116 194.733 184.119 194.623 184.084 194.523L182.886 191.574C182.848 191.475 182.777 191.395 182.687 191.351C182.597 191.307 182.495 191.302 182.403 191.337C182.312 191.376 182.239 191.452 182.199 191.549C182.16 191.646 182.157 191.756 182.192 191.856V191.856Z" fill="#CCCCCC"/>
<path d="M186.813 190.365L186.252 193.752C186.164 194.281 186.914 194.431 187.002 193.903L187.563 190.516C187.651 189.987 186.901 189.837 186.813 190.365Z" fill="#CCCCCC"/>
<path d="M190.474 193.152L188.461 195.624C188.147 196.01 188.762 196.478 189.076 196.093L191.088 193.621C191.403 193.235 190.788 192.767 190.474 193.152V193.152Z" fill="#CCCCCC"/>
<path d="M216.69 191.404C216.294 191.372 215.896 191.421 215.519 191.546C215.142 191.671 214.794 191.87 214.495 192.133C214.197 192.395 213.954 192.715 213.781 193.073C213.608 193.431 213.509 193.82 213.49 194.217L213.185 200.398L204.961 216.537L201.135 221.526L205.892 226.649L210.745 219.542L217.158 200.914L219.227 195.402C219.388 194.972 219.448 194.511 219.4 194.054C219.353 193.597 219.201 193.158 218.955 192.77C218.709 192.383 218.376 192.058 217.983 191.821C217.59 191.584 217.148 191.441 216.69 191.404V191.404Z" fill="#CF9191"/>
<path d="M206.563 226.411C204.379 224.882 202.476 222.986 200.939 220.808L197.69 224.809L196.095 239.304C201.528 232.684 199.189 235.657 200.939 233.424C204.176 229.293 204.865 229.414 206.563 226.411Z" fill="#FF9D9D"/>
<path d="M151.655 193.698C152.041 193.668 152.43 193.714 152.798 193.834C153.166 193.954 153.505 194.145 153.797 194.396C154.088 194.648 154.325 194.954 154.493 195.297C154.662 195.64 154.758 196.013 154.778 196.393L155.075 202.316L163.099 217.781L166.831 222.561L162.19 227.471L157.456 220.66L151.199 202.811L149.18 197.529C149.023 197.117 148.965 196.675 149.011 196.237C149.057 195.8 149.206 195.379 149.446 195.007C149.686 194.636 150.01 194.324 150.394 194.097C150.777 193.87 151.209 193.733 151.655 193.698V193.698Z" fill="#CF9191"/>
<path d="M161.535 227.243C163.666 225.778 165.522 223.961 167.022 221.874L170.192 225.708L171.748 239.597C166.447 233.254 168.729 236.103 167.022 233.963C163.864 230.005 163.192 230.12 161.535 227.243Z" fill="#FF9D9D"/>
<path d="M179.492 218.821L184 215.618L183.67 215L179.426 218.016C179.315 217.691 179.105 217.424 178.837 217.263C178.568 217.102 178.258 217.058 177.964 217.139C177.669 217.221 177.41 217.422 177.234 217.707C177.058 217.991 176.977 218.339 177.006 218.687C177.034 219.034 177.171 219.358 177.39 219.599C177.609 219.84 177.896 219.982 178.199 219.998C178.501 220.015 178.798 219.905 179.036 219.688C179.274 219.472 179.436 219.164 179.492 218.821L179.492 218.821Z" fill="#3F3D56"/>
<defs>

<linearGradient id="paint0_linear" x1="119" y1="-24" x2="283.5" y2="449" gradientUnits="userSpaceOnUse">
<stop stop-color="#FF9D9D"/>
<stop offset="1" stop-color="#B1D8F9"/>
</linearGradient>
</defs>
</svg>
